<svg width="24" height="20" viewBox="0 0 24 20" fill="none" xmlns="http://www.w3.org/2000/svg">
<path d="M12.0003 4.30664L3.4408 11.363C3.4408 11.373 3.4383 11.3877 3.43329 11.4076C3.42839 11.4274 3.42578 11.4418 3.42578 11.452V18.5974C3.42578 18.8554 3.5201 19.079 3.70869 19.2672C3.89723 19.4556 4.1205 19.5504 4.37854 19.5504H10.0947V13.834H13.9059V19.5506H19.622C19.88 19.5506 20.1036 19.456 20.2919 19.2672C20.4805 19.0792 20.5751 18.8554 20.5751 18.5974V11.452C20.5751 11.4124 20.5697 11.3825 20.5601 11.363L12.0003 4.30664Z" fill="#AAAAAA"/>
<path d="M23.8344 9.75528L20.5745 7.04597V0.972313C20.5745 0.833464 20.5299 0.719277 20.4403 0.629909C20.3515 0.540645 20.2373 0.496013 20.0981 0.496013H17.24C17.101 0.496013 16.9869 0.540645 16.8974 0.629909C16.8082 0.719277 16.7637 0.833516 16.7637 0.972313V3.87512L13.1315 0.838209C12.8142 0.580167 12.4371 0.451172 12.0003 0.451172C11.5637 0.451172 11.1865 0.580167 10.869 0.838209L0.165418 9.75528C0.0661949 9.83454 0.0118127 9.94122 0.00169755 10.0752C-0.00836549 10.2091 0.0263077 10.3261 0.105821 10.4252L1.02875 11.5269C1.10827 11.6161 1.21234 11.6707 1.34139 11.6907C1.46053 11.7007 1.57967 11.6659 1.69881 11.5865L12 2.99681L22.3014 11.5864C22.3809 11.6557 22.4849 11.6903 22.614 11.6903H22.6587C22.7876 11.6707 22.8914 11.6157 22.9714 11.5266L23.8944 10.4252C23.9737 10.3258 24.0085 10.2091 23.9982 10.075C23.988 9.94137 23.9334 9.83469 23.8344 9.75528Z" fill="#AAAAAA"/>
</svg>
