<svg width="99" height="84" viewBox="0 0 99 84" fill="none" xmlns="http://www.w3.org/2000/svg">
<path fill-rule="evenodd" clip-rule="evenodd" d="M34.7495 1.46087L33.1668 0.130859L31.5633 1.43558L6.41789 21.8949L0.961914 26.3341H7.99571H15.3743V42.9734V45.4734H17.8743H81.2659V64.6027C80.8946 64.6027 73.2543 65.331 72.6573 65.8684C72.5124 66.5289 73.3515 66.7998 73.8938 66.9748C74.0029 67.0101 74.1 67.0414 74.1747 67.0713C74.7059 67.2328 75.2865 67.3899 76.0193 67.5882L76.0197 67.5883C76.7892 67.7966 77.7265 68.0503 78.9506 68.4021C79.6743 68.6101 80.2007 68.7348 80.603 68.8301L80.6031 68.8302C81.4879 69.0398 81.7724 69.1072 82.2341 69.6049C82.5416 69.9364 82.5449 69.9564 82.7217 71.0051C82.8031 71.4875 82.9211 72.1875 83.1223 73.2356C83.4752 75.0743 83.6891 76.4457 83.9047 77.8278C84.0886 79.0068 84.2738 80.1936 84.5474 81.6846C84.5583 81.744 84.569 81.8024 84.5794 81.8598C84.5885 81.9099 84.5975 81.9593 84.6063 82.008C84.8185 83.1775 84.9528 83.9178 85.2937 83.988C85.6381 84.0588 85.7074 83.822 85.8972 83.1735C85.9119 83.123 85.9275 83.07 85.9439 83.0144C86.1532 82.3066 87.0713 78.5277 87.3314 77.457L87.3547 77.361C87.3991 77.1785 87.4375 77.0021 87.4736 76.8365C87.6188 76.1704 87.7257 75.6803 88.023 75.6803C88.3901 75.6803 89.8442 75.8465 91.1688 75.9979L91.2138 76.0031C93.0976 76.2184 96.8277 76.3365 97.7061 76.1822C98.351 76.0689 98.9996 75.7747 98.9996 75.3633C98.9996 75.0306 98.9996 74.9794 96.9847 74.186C96.5466 74.0135 95.4665 73.6441 94.2657 73.2336L94.2656 73.2335C92.4613 72.6165 90.3847 71.9064 89.8051 71.6312C88.6523 71.0838 88.6171 70.8672 88.8398 69.8741C88.9866 69.2196 89.4881 66.8398 89.8556 65.0962L89.8562 65.0934C90.0461 64.1924 90.2001 63.4618 90.2506 63.2275C90.3763 62.646 90.8561 62.5506 91.3754 62.4474L91.3755 62.4474C91.4701 62.4286 91.5661 62.4095 91.6615 62.3872C93.0084 62.0718 93.3089 61.9709 93.8082 61.8031L93.8891 61.776C96.1118 61.0311 95.084 60.8105 94.0908 60.5973C94.023 60.5828 93.9555 60.5683 93.8891 60.5536C93.0574 60.3703 90.8199 60.1716 89.8051 60.0952V41.9891H89.4616V40.4734H20.3743V23.8341V21.3341H17.8743H15.0295L33.1153 6.6187L39.9359 12.3505L40.4355 12.7703L40.432 12.7743L58.5116 28.0302L61.7337 24.2101L45.2019 10.2603L47.2028 8.20161L58.3869 17.202L62.4543 20.4753V15.2544V9.70265H63.0992V19.7422V20.8859L63.9645 21.6337L70.3791 27.1775L73.6485 23.3946L68.0992 18.5986V7.20265V4.70265H65.5992H59.9543H57.4543V7.20265V10.0335L48.5641 2.8791L46.7906 1.45188L45.204 3.0843L41.3724 7.02652L34.7495 1.46087Z" fill="#FF9800"/>
<path d="M26.756 48.28H28.904V52.132H29.12L30.548 48.28H32.684L30.908 52.84L32.744 58H30.536L29.12 53.764H28.904V58H26.756V48.28ZM34.4632 49.876H32.9992V48.28H38.0752V49.876H36.6232V58H34.4632V49.876ZM41.7149 58.144C40.6669 58.144 39.9189 57.876 39.4709 57.34C39.0229 56.796 38.7989 55.996 38.7989 54.94V51.328C38.7989 50.272 39.0229 49.48 39.4709 48.952C39.9189 48.416 40.6669 48.148 41.7149 48.148C42.7709 48.148 43.5229 48.416 43.9709 48.952C44.4269 49.488 44.6549 50.28 44.6549 51.328V54.94C44.6549 55.996 44.4269 56.796 43.9709 57.34C43.5229 57.876 42.7709 58.144 41.7149 58.144ZM41.7149 56.62C42.0189 56.62 42.2189 56.52 42.3149 56.32C42.4109 56.112 42.4589 55.832 42.4589 55.48V50.8C42.4589 50.44 42.4109 50.16 42.3149 49.96C42.2189 49.76 42.0189 49.66 41.7149 49.66C41.4269 49.66 41.2349 49.764 41.1389 49.972C41.0429 50.172 40.9949 50.448 40.9949 50.8V55.48C40.9949 55.832 41.0389 56.112 41.1269 56.32C41.2149 56.52 41.4109 56.62 41.7149 56.62ZM46.8382 49.876H45.3742V48.28H50.4502V49.876H48.9982V58H46.8382V49.876ZM54.0899 58.144C53.0419 58.144 52.2939 57.876 51.8459 57.34C51.3979 56.796 51.1739 55.996 51.1739 54.94V51.328C51.1739 50.272 51.3979 49.48 51.8459 48.952C52.2939 48.416 53.0419 48.148 54.0899 48.148C55.1459 48.148 55.8979 48.416 56.3459 48.952C56.8019 49.488 57.0299 50.28 57.0299 51.328V54.94C57.0299 55.996 56.8019 56.796 56.3459 57.34C55.8979 57.876 55.1459 58.144 54.0899 58.144ZM54.0899 56.62C54.3939 56.62 54.5939 56.52 54.6899 56.32C54.7859 56.112 54.8339 55.832 54.8339 55.48V50.8C54.8339 50.44 54.7859 50.16 54.6899 49.96C54.5939 49.76 54.3939 49.66 54.0899 49.66C53.8019 49.66 53.6099 49.764 53.5139 49.972C53.4179 50.172 53.3699 50.448 53.3699 50.8V55.48C53.3699 55.832 53.4139 56.112 53.5019 56.32C53.5899 56.52 53.7859 56.62 54.0899 56.62Z" fill="#012849"/>
<path d="M26.756 28.28H28.904V32.132H29.12L30.548 28.28H32.684L30.908 32.84L32.744 38H30.536L29.12 33.764H28.904V38H26.756V28.28ZM34.4632 29.876H32.9992V28.28H38.0752V29.876H36.6232V38H34.4632V29.876ZM41.7149 38.144C40.6669 38.144 39.9189 37.876 39.4709 37.34C39.0229 36.796 38.7989 35.996 38.7989 34.94V31.328C38.7989 30.272 39.0229 29.48 39.4709 28.952C39.9189 28.416 40.6669 28.148 41.7149 28.148C42.7709 28.148 43.5229 28.416 43.9709 28.952C44.4269 29.488 44.6549 30.28 44.6549 31.328V34.94C44.6549 35.996 44.4269 36.796 43.9709 37.34C43.5229 37.876 42.7709 38.144 41.7149 38.144ZM41.7149 36.62C42.0189 36.62 42.2189 36.52 42.3149 36.32C42.4109 36.112 42.4589 35.832 42.4589 35.48V30.8C42.4589 30.44 42.4109 30.16 42.3149 29.96C42.2189 29.76 42.0189 29.66 41.7149 29.66C41.4269 29.66 41.2349 29.764 41.1389 29.972C41.0429 30.172 40.9949 30.448 40.9949 30.8V35.48C40.9949 35.832 41.0389 36.112 41.1269 36.32C41.2149 36.52 41.4109 36.62 41.7149 36.62ZM46.8382 29.876H45.3742V28.28H50.4502V29.876H48.9982V38H46.8382V29.876ZM54.0899 38.144C53.0419 38.144 52.2939 37.876 51.8459 37.34C51.3979 36.796 51.1739 35.996 51.1739 34.94V31.328C51.1739 30.272 51.3979 29.48 51.8459 28.952C52.2939 28.416 53.0419 28.148 54.0899 28.148C55.1459 28.148 55.8979 28.416 56.3459 28.952C56.8019 29.488 57.0299 30.28 57.0299 31.328V34.94C57.0299 35.996 56.8019 36.796 56.3459 37.34C55.8979 37.876 55.1459 38.144 54.0899 38.144ZM54.0899 36.62C54.3939 36.62 54.5939 36.52 54.6899 36.32C54.7859 36.112 54.8339 35.832 54.8339 35.48V30.8C54.8339 30.44 54.7859 30.16 54.6899 29.96C54.5939 29.76 54.3939 29.66 54.0899 29.66C53.8019 29.66 53.6099 29.764 53.5139 29.972C53.4179 30.172 53.3699 30.448 53.3699 30.8V35.48C53.3699 35.832 53.4139 36.112 53.5019 36.32C53.5899 36.52 53.7859 36.62 54.0899 36.62ZM61.4555 33.164H64.5635V34.412H61.4555V33.164Z" fill="#012849"/>
</svg>
