<svg width="16" height="17" viewBox="0 0 16 17" fill="none" xmlns="http://www.w3.org/2000/svg">
<path d="M3.52083 7.44563C4.72083 9.92188 6.65 11.9475 9.0125 13.2075L10.8458 11.2781C11.075 11.0375 11.4042 10.9675 11.6917 11.0638C12.625 11.3875 13.6292 11.5625 14.6667 11.5625C15.1292 11.5625 15.5 11.9519 15.5 12.4375V15.5C15.5 15.9856 15.1292 16.375 14.6667 16.375C6.84167 16.375 0.5 9.71625 0.5 1.5C0.5 1.01438 0.875 0.625 1.33333 0.625H4.25C4.7125 0.625 5.08333 1.01438 5.08333 1.5C5.08333 2.58938 5.25 3.64375 5.55833 4.62375C5.65 4.92563 5.58333 5.27125 5.35417 5.51188L3.52083 7.44563Z" fill="#012849"/>
</svg>
