<svg width="18" height="18" viewBox="0 0 18 18" fill="none" xmlns="http://www.w3.org/2000/svg">
<path d="M8.99518 0.666992C4.39102 0.666992 0.666016 4.39616 0.666016 9.00033C0.666016 13.6045 4.39102 17.3337 8.99518 17.3337C13.5993 17.3337 17.3327 13.6045 17.3327 9.00033C17.3327 4.39616 13.5993 0.666992 8.99518 0.666992ZM8.99935 15.667C5.31602 15.667 2.33268 12.6837 2.33268 9.00033C2.33268 5.31699 5.31602 2.33366 8.99935 2.33366C12.6827 2.33366 15.666 5.31699 15.666 9.00033C15.666 12.6837 12.6827 15.667 8.99935 15.667ZM9.41602 4.83366H8.16602V9.83366L12.5368 12.4587L13.166 11.4337L9.41602 9.20866V4.83366Z" fill="#012849"/>
</svg>
